<svg id="Layer_1" data-name="Layer 1" xmlns="http://www.w3.org/2000/svg" viewBox="0 0 150 50"><defs><style>.cls-1{fill:#4d4c4d;}.cls-2{fill:#68963f;}</style></defs><polygon class="cls-1" points="27.73 17.14 27.73 38.2 31.85 38.2 31.85 31.92 36.57 38.2 42.33 38.2 35.81 29.68 41.56 23.5 36.23 23.5 31.93 28.32 31.93 17.14 27.73 17.14"/><path class="cls-1" d="M53.15,23.59v1.63a5.61,5.61,0,0,0-7.26-1.37s-4.67,2.67-3.57,9c0,0,1.74,6.11,7.67,5.47A4.55,4.55,0,0,0,52.81,37v1.2h4.38V23.6h-4ZM49.76,34.87a3.76,3.76,0,0,1-3.55-4,3.76,3.76,0,0,1,3.55-4c2,0,3.25,1.7,3.25,3.89S51.72,34.87,49.76,34.87Z"/><rect class="cls-1" x="59.9" y="17.14" width="3.87" height="21.05"/><path class="cls-1" d="M74.14,23A7.61,7.61,0,1,0,82,30.59,7.7,7.7,0,0,0,74.14,23Zm0,12.09a4,4,0,0,1-3.69-4.18,3.73,3.73,0,1,1,7.4,0A4,4,0,0,1,74.14,35.07Z"/><path class="cls-1" d="M91.67,23a7.61,7.61,0,1,0,7.81,7.61A7.7,7.7,0,0,0,91.67,23Zm0,12.09A4,4,0,0,1,88,30.89a3.73,3.73,0,1,1,7.4,0A4,4,0,0,1,91.67,35.07Z"/><path class="cls-1" d="M105.58,38.19h-3.94V23.51h3.94v1.42c-.16-1,5.83-4.29,7.54.39,0-2.44,9.09-4.25,9.09,1.54V38.2h-3.88V28.47c-.06-2.65-4.24-2.7-4.24,0v9.72h-4.25V28.27c.09-2.12-4.21-2.53-4.24,0v9.92Z"/><polygon class="cls-2" points="25.12 23.57 18.99 23.57 13 30.91 18.99 38.25 25.12 38.25 18.99 30.91 25.12 23.57"/><polygon class="cls-2" points="99.14 23.19 99.14 17.08 91.8 11.09 84.46 17.08 84.46 23.19 91.8 17.08 99.14 23.19"/><polygon class="cls-2" points="124.78 38.25 130.91 38.25 136.9 30.91 130.91 23.57 124.78 23.57 130.91 30.91 124.78 38.25"/><path class="cls-1" d="M122.39,20.47h-.65v1.79h-.36V20.47h-.64v-.3h1.65Z"/><path class="cls-1" d="M123.14,20.17l.6,1.6.6-1.6h.47v2.09h-.36v-.69l0-.92-.62,1.61h-.25L123,20.65l0,.92v.69h-.36V20.17Z"/></svg>